<?xml version="1.0" standalone="no"?><!-- Generator: Gravit.io --><svg xmlns="http://www.w3.org/2000/svg" xmlns:xlink="http://www.w3.org/1999/xlink" style="isolation:isolate" viewBox="0 0 400 400" width="400" height="400"><defs><clipPath id="_clipPath_P5oIfeYJlZdHCH2C7UlyalHS1fBRgnsG"><rect width="400" height="400"/></clipPath></defs><g clip-path="url(#_clipPath_P5oIfeYJlZdHCH2C7UlyalHS1fBRgnsG)"><g style="isolation:isolate" id="Logo"><g style="isolation:isolate" id="Background"><linearGradient id="_lgradient_0" x1="0%" y1="50%" x2="100%" y2="50%"><stop offset="2.1739130434782608%" stop-opacity="1" style="stop-color:rgb(215,51,51)"/><stop offset="98.26086956521739%" stop-opacity="1" style="stop-color:rgb(128,6,6)"/></linearGradient><rect x="73.5" y="82" width="243" height="243" transform="matrix(0.707,-0.707,0.707,0.707,-86.782,197.49)" fill="url(#_lgradient_0)"/></g><g style="isolation:isolate" id="Page"><path d=" M 132 257 Q 188.796 218.015 272 246 L 260 220 Q 163.631 192.097 132 257 Z " fill="rgb(130,7,7)"/><path d=" M 221.232 49.421 L 282.968 241.156 Q 163.95 205.234 132.327 257.913 L 109 62.023 Q 193.893 -1.022 221.232 49.421 Z " fill="rgb(255,255,255)" vector-effect="non-scaling-stroke" stroke-width="1" stroke="rgb(132,8,8)" stroke-linejoin="miter" stroke-linecap="square" stroke-miterlimit="3"/><g style="isolation:isolate" id="Smile"><path d=" M 139.618 136.262 Q 195.659 173.384 233 135 Q 216.683 151.652 224.524 160.704 Q 172.503 177.666 139.618 136.262 Z " fill="rgb(51,51,51)"/><path d=" M 136 134 Q 190.561 165.316 234 134 Q 215.85 148.724 222 159 Q 174.414 176.852 136 134 Z " fill="rgb(255,255,255)" vector-effect="non-scaling-stroke" stroke-width="1" stroke="rgb(51,51,51)" stroke-linejoin="miter" stroke-linecap="square" stroke-miterlimit="3"/><path d=" M 143.843 134.018 L 139.618 136.955 L 136.517 141.389 L 136.086 136.262 L 133.797 131.359 L 138.453 133.549 L 143.843 134.018 Z " fill="rgb(51,51,51)"/></g></g><g style="isolation:isolate" id="Ribbon"><g id="Ribbon"><path d=" M 340.575 276.056 L 344.391 253.969 C 339.165 257.051 326.053 263.662 309.708 263.664 C 308.625 263.664 307.545 263.612 306.468 263.552 L 335.127 289.171 C 340.076 287.657 344.645 285.775 348.153 283.411 L 340.575 276.056 Z " fill="rgb(18,29,67)"/><path d=" M 333.414 290.993 L 332.295 289.997 L 303.524 264.28 L 301.083 294.867 L 301 295.901 L 301.188 296.121 L 302.207 297.312 L 306.854 302.746 L 346.561 302.746 L 334.526 291.991 L 333.414 290.993 Z " fill="rgb(18,29,67)"/><path d=" M 52.98 276.056 L 49.164 253.969 C 54.39 257.051 67.502 263.662 83.847 263.664 C 84.93 263.664 86.01 263.612 87.087 263.552 L 58.428 289.171 C 53.478 287.657 48.91 285.775 45.402 283.411 L 52.98 276.056 Z " fill="rgb(18,29,67)"/><path d=" M 60.141 290.993 L 61.26 289.997 L 90.031 264.28 L 92.472 294.867 L 92.555 295.901 L 92.367 296.121 L 91.348 297.312 L 86.701 302.746 L 46.994 302.746 L 59.029 291.991 L 60.141 290.993 Z " fill="rgb(18,29,67)"/><path d=" M 267.887 306.503 L 264.519 306.503 L 261.15 306.503 L 230.684 306.503 L 230.684 306.503 L 169.279 306.503 L 166.215 306.503 L 163.149 306.503 L 134.06 306.503 L 130.695 306.503 L 127.327 306.503 L 47.066 306.503 L 47.057 306.503 L 65.978 341.422 L 66.14 341.422 L 69.509 341.422 L 162.944 341.422 L 165.806 341.422 L 168.667 341.422 L 230.684 341.422 L 230.684 341.422 L 325.705 341.422 L 329.069 341.422 L 329.238 341.422 L 348.153 306.503 L 348.145 306.503 L 267.887 306.503 Z " fill="rgb(30,49,111)"/></g><g transform="matrix(0.92,0,0,0.92,87.26,301.637)"><text transform="matrix(1,0,0,1,3.096,31.272)" style="font-family:&quot;Pacifico&quot;;font-weight:400;font-size:24px;font-style:normal;fill:#ffffff;stroke:none;">Smile Greetings Online</text></g></g></g></g></svg>